<svg xmlns="http://www.w3.org/2000/svg" viewBox="0 0 200 200">
    <defs>
        <style>.cls-1{fill:#fff;}.cls-2{fill:#e7f6fd;}.cls-3{fill:#24609b;}</style>
    </defs>
    <title>add-icn</title>
    <g id="Layer_2" data-name="Layer 2">
        <g id="Layer_1-2" data-name="Layer 1">
            <rect class="cls-1" width="200" height="200"/>
            <g id="_Group_" data-name="&lt;Group&gt;">
                <g id="_Group_2" data-name="&lt;Group&gt;">
                    <circle class="cls-2" cx="101.04" cy="100" r="89.88"/>
                </g>
                <g id="_Group_3" data-name="&lt;Group&gt;">
                    <path class="cls-3"
                          d="M100,77.7A21.67,21.67,0,1,1,121.67,56,21.7,21.7,0,0,1,100,77.7ZM100,38a18,18,0,1,0,18,18A18.05,18.05,0,0,0,100,38Z"/>
                </g>
                <g id="_Group_4" data-name="&lt;Group&gt;">
                    <path class="cls-3"
                          d="M133.41,134.34H66.59a1.81,1.81,0,0,1-1.81-1.82V117.64A35.05,35.05,0,0,1,94.3,82.88a1.83,1.83,0,0,1,2.1,1.9l-1.71,28.56,5.32,4.17,5.31-4.17-1.7-28.56a1.81,1.81,0,0,1,.59-1.45,1.85,1.85,0,0,1,1.51-.45,35,35,0,0,1,22,13.06,1.81,1.81,0,1,1-2.86,2.23,33.21,33.21,0,0,0-2.55-2.88,31.36,31.36,0,0,0-15-8.37L109,114.07a1.84,1.84,0,0,1-.7,1.54l-7.18,5.64a1.83,1.83,0,0,1-2.24,0l-7.19-5.64a1.83,1.83,0,0,1-.69-1.54l1.62-27.16a31.44,31.44,0,0,0-24.22,30.73v13.07h63.18V120.17a1.82,1.82,0,1,1,3.63,0v12.35A1.81,1.81,0,0,1,133.41,134.34Z"/>
                </g>
                <g id="_Group_5" data-name="&lt;Group&gt;">
                    <g id="_Group_6" data-name="&lt;Group&gt;">
                        <path class="cls-3"
                              d="M128,34.2a.9.9,0,0,1-.64-.27l-8.18-8.18a.91.91,0,0,1,1.28-1.29l8.19,8.19A.91.91,0,0,1,128,34.2Z"/>
                    </g>
                    <g id="_Group_7" data-name="&lt;Group&gt;">
                        <path class="cls-3"
                              d="M119.86,34.2a.91.91,0,0,1-.64-1.55l8.18-8.19a.91.91,0,1,1,1.29,1.29l-8.19,8.18A.9.9,0,0,1,119.86,34.2Z"/>
                    </g>
                </g>
                <g id="_Group_8" data-name="&lt;Group&gt;">
                    <g id="_Group_9" data-name="&lt;Group&gt;">
                        <path class="cls-3"
                              d="M53.86,76.8a.9.9,0,0,1-.64-.27L45,68.35a.91.91,0,1,1,1.28-1.29l8.18,8.19a.91.91,0,0,1-.64,1.55Z"/>
                    </g>
                    <g id="_Group_10" data-name="&lt;Group&gt;">
                        <path class="cls-3"
                              d="M45.68,76.8A.91.91,0,0,1,45,75.25l8.18-8.19a.91.91,0,0,1,1.28,1.29l-8.18,8.18A.9.9,0,0,1,45.68,76.8Z"/>
                    </g>
                </g>
                <g id="_Group_11" data-name="&lt;Group&gt;">
                    <g id="_Group_12" data-name="&lt;Group&gt;">
                        <path class="cls-3"
                              d="M157.39,66.76a1.23,1.23,0,0,1-.86-.35l-8.19-8.19a1.22,1.22,0,1,1,1.72-1.72l8.19,8.19a1.23,1.23,0,0,1,0,1.72A1.24,1.24,0,0,1,157.39,66.76Z"/>
                    </g>
                    <g id="_Group_13" data-name="&lt;Group&gt;">
                        <path class="cls-3"
                              d="M149.2,66.76a1.24,1.24,0,0,1-.86-.35,1.23,1.23,0,0,1,0-1.72l8.19-8.19a1.22,1.22,0,0,1,1.72,1.72l-8.19,8.19A1.24,1.24,0,0,1,149.2,66.76Z"/>
                    </g>
                </g>
                <g id="_Group_14" data-name="&lt;Group&gt;">
                    <path class="cls-3"
                          d="M130.9,121.87a5.51,5.51,0,0,1-5.51-5.51V109.6h-6.76a5.51,5.51,0,1,1,0-11h6.76V91.83a5.51,5.51,0,0,1,11,0v6.76h6.76a5.51,5.51,0,1,1,0,11H136.4v6.76A5.51,5.51,0,0,1,130.9,121.87Zm-12.27-20.52a2.75,2.75,0,0,0,0,5.5h8.14a1.37,1.37,0,0,1,1.37,1.38v8.13a2.76,2.76,0,1,0,5.51,0v-8.13a1.37,1.37,0,0,1,1.37-1.38h8.14a2.75,2.75,0,0,0,0-5.5H135a1.37,1.37,0,0,1-1.37-1.38V91.83a2.76,2.76,0,0,0-5.51,0V100a1.37,1.37,0,0,1-1.37,1.38Z"/>
                </g>
                <g id="_Group_15" data-name="&lt;Group&gt;">
                    <g id="_Group_16" data-name="&lt;Group&gt;">
                        <g id="_Group_17" data-name="&lt;Group&gt;">
                            <path class="cls-3" d="M29,135.58H3.47a.91.91,0,0,1,0-1.82H29a.91.91,0,0,1,0,1.82Z"/>
                        </g>
                        <g id="_Group_18" data-name="&lt;Group&gt;">
                            <path class="cls-3" d="M196.53,135.58h-22a.91.91,0,0,1,0-1.82h22a.91.91,0,0,1,0,1.82Z"/>
                        </g>
                        <g id="_Group_19" data-name="&lt;Group&gt;">
                            <path class="cls-3"
                                  d="M169.37,135.58H38.76a.91.91,0,0,1,0-1.82H169.37a.91.91,0,0,1,0,1.82Z"/>
                        </g>
                    </g>
                    <g id="_Group_20" data-name="&lt;Group&gt;">
                        <g id="_Group_21" data-name="&lt;Group&gt;">
                            <path class="cls-3"
                                  d="M49.77,146H28.91a.46.46,0,0,1-.45-.46.45.45,0,0,1,.45-.45H49.77a.45.45,0,0,1,.45.45A.46.46,0,0,1,49.77,146Z"/>
                        </g>
                        <g id="_Group_22" data-name="&lt;Group&gt;">
                            <path class="cls-3"
                                  d="M83.35,146H62.47a.46.46,0,0,1-.45-.46.45.45,0,0,1,.45-.45H83.35a.45.45,0,0,1,.45.45A.46.46,0,0,1,83.35,146Z"/>
                        </g>
                        <g id="_Group_23" data-name="&lt;Group&gt;">
                            <path class="cls-3"
                                  d="M138.27,146h-43a.46.46,0,0,1-.45-.46.45.45,0,0,1,.45-.45h43a.46.46,0,0,1,.46.45A.47.47,0,0,1,138.27,146Z"/>
                        </g>
                        <g id="_Group_24" data-name="&lt;Group&gt;">
                            <path class="cls-3"
                                  d="M175.42,146H151a.46.46,0,0,1-.45-.46.45.45,0,0,1,.45-.45h24.47a.45.45,0,0,1,.45.45A.46.46,0,0,1,175.42,146Z"/>
                        </g>
                    </g>
                </g>
                <g id="_Group_25" data-name="&lt;Group&gt;">
                    <path class="cls-3"
                          d="M169.37,96.21a6.38,6.38,0,1,1,6.37-6.37A6.38,6.38,0,0,1,169.37,96.21Zm0-10.32a4,4,0,1,0,3.94,4A4,4,0,0,0,169.37,85.89Z"/>
                </g>
                <g id="_Group_26" data-name="&lt;Group&gt;">
                    <path class="cls-3"
                          d="M64,48.2a4.44,4.44,0,1,1,4.44-4.44A4.44,4.44,0,0,1,64,48.2ZM64,41a2.75,2.75,0,1,0,2.75,2.75A2.75,2.75,0,0,0,64,41Z"/>
                </g>
            </g>
        </g>
    </g>
</svg>