<svg xmlns="http://www.w3.org/2000/svg" viewBox="0 0 200 200">
    <defs>
        <style>.cls-1{fill:#fff;}.cls-2{fill:#e7f6fd;}.cls-3{fill:#24609b;}</style>
    </defs>
    <title>flag-icn</title>
    <g id="Layer_2" data-name="Layer 2">
        <g id="Layer_1-2" data-name="Layer 1">
            <rect class="cls-1" width="200" height="200"/>
            <g id="_Group_" data-name="&lt;Group&gt;">
                <g id="_Group_2" data-name="&lt;Group&gt;">
                    <circle class="cls-2" cx="100.09" cy="100" r="89.88"/>
                </g>
                <g id="_Group_3" data-name="&lt;Group&gt;">
                    <g id="_Group_4" data-name="&lt;Group&gt;">
                        <g id="_Group_5" data-name="&lt;Group&gt;">
                            <path class="cls-3" d="M29,140.16H3.47a.91.91,0,1,1,0-1.81H29a.91.91,0,0,1,0,1.81Z"/>
                        </g>
                        <g id="_Group_6" data-name="&lt;Group&gt;">
                            <path class="cls-3" d="M196.53,140.16h-22a.91.91,0,1,1,0-1.81h22a.91.91,0,1,1,0,1.81Z"/>
                        </g>
                        <g id="_Group_7" data-name="&lt;Group&gt;">
                            <path class="cls-3"
                                  d="M169.37,140.16H38.76a.91.91,0,0,1,0-1.81H169.37a.91.91,0,0,1,0,1.81Z"/>
                        </g>
                    </g>
                    <g id="_Group_8" data-name="&lt;Group&gt;">
                        <g id="_Group_9" data-name="&lt;Group&gt;">
                            <path class="cls-3" d="M53.53,150.6H32.67a.45.45,0,1,1,0-.9H53.53a.45.45,0,1,1,0,.9Z"/>
                        </g>
                        <g id="_Group_10" data-name="&lt;Group&gt;">
                            <path class="cls-3" d="M87.11,150.6H66.23a.45.45,0,1,1,0-.9H87.11a.45.45,0,1,1,0,.9Z"/>
                        </g>
                        <g id="_Group_11" data-name="&lt;Group&gt;">
                            <path class="cls-3" d="M142,150.6H99a.45.45,0,1,1,0-.9h43a.45.45,0,0,1,0,.9Z"/>
                        </g>
                        <g id="_Group_12" data-name="&lt;Group&gt;">
                            <path class="cls-3" d="M179.18,150.6H154.72a.45.45,0,1,1,0-.9h24.46a.45.45,0,0,1,0,.9Z"/>
                        </g>
                    </g>
                </g>
                <g id="_Group_13" data-name="&lt;Group&gt;">
                    <g id="_Group_14" data-name="&lt;Group&gt;">
                        <path class="cls-3"
                              d="M142,50.58a1.24,1.24,0,0,1-.86-.35L130.34,39.4a1.22,1.22,0,1,1,1.72-1.72l10.83,10.83a1.21,1.21,0,0,1,0,1.72A1.23,1.23,0,0,1,142,50.58Z"/>
                    </g>
                    <g id="_Group_15" data-name="&lt;Group&gt;">
                        <path class="cls-3"
                              d="M131.2,50.58a1.24,1.24,0,0,1-.86-.35,1.23,1.23,0,0,1,0-1.72l10.83-10.83a1.23,1.23,0,0,1,1.72,0,1.21,1.21,0,0,1,0,1.72L132.06,50.23A1.23,1.23,0,0,1,131.2,50.58Z"/>
                    </g>
                </g>
                <g id="_Group_16" data-name="&lt;Group&gt;">
                    <g id="_Group_17" data-name="&lt;Group&gt;">
                        <path class="cls-3"
                              d="M165.93,90.72a1.24,1.24,0,0,1-.86-.35l-5.26-5.26a1.22,1.22,0,0,1,1.72-1.72l5.26,5.26a1.23,1.23,0,0,1,0,1.72A1.24,1.24,0,0,1,165.93,90.72Z"/>
                    </g>
                    <g id="_Group_18" data-name="&lt;Group&gt;">
                        <path class="cls-3"
                              d="M160.67,90.72a1.24,1.24,0,0,1-.86-.35,1.23,1.23,0,0,1,0-1.72l5.26-5.26a1.22,1.22,0,1,1,1.72,1.72l-5.26,5.26A1.24,1.24,0,0,1,160.67,90.72Z"/>
                    </g>
                </g>
                <g id="_Group_19" data-name="&lt;Group&gt;">
                    <path class="cls-3"
                          d="M72.23,50.32A6.37,6.37,0,1,1,78.6,44,6.37,6.37,0,0,1,72.23,50.32Zm0-10.31A3.94,3.94,0,1,0,76.17,44,3.94,3.94,0,0,0,72.23,40Z"/>
                </g>
                <g id="_Group_20" data-name="&lt;Group&gt;">
                    <path class="cls-3"
                          d="M57.6,91.74a4.86,4.86,0,1,1,4.86-4.86A4.87,4.87,0,0,1,57.6,91.74Zm0-7.29A2.43,2.43,0,1,0,60,86.88,2.43,2.43,0,0,0,57.6,84.45Z"/>
                </g>
                <g id="_Group_21" data-name="&lt;Group&gt;">
                    <g id="_Group_22" data-name="&lt;Group&gt;">
                        <path class="cls-3"
                              d="M114.76,118.87a1.82,1.82,0,0,1-1.29-.54L83.3,88.16a1.81,1.81,0,0,1-.53-1.28,1.83,1.83,0,0,1,.53-1.29l30.17-30.17a1.82,1.82,0,0,1,2.57,0l30.17,30.17a1.82,1.82,0,0,1,0,2.57L116,118.33A1.82,1.82,0,0,1,114.76,118.87Zm-27.61-32,27.61,27.6,27.6-27.6-27.6-27.61Z"/>
                    </g>
                    <g id="_Group_23" data-name="&lt;Group&gt;">
                        <path class="cls-3"
                              d="M121.19,141.07a1.83,1.83,0,0,1-1.28-.53L89.74,110.37a1.82,1.82,0,0,1,0-2.57l7.45-7.46a1.82,1.82,0,0,1,2.57,2.57l-6.17,6.17,26.56,26.56L125,114.25a1.8,1.8,0,0,1,1.37-1.37L147.75,108,136.19,96.48a1.81,1.81,0,1,1,2.56-2.57l13.9,13.89a1.82,1.82,0,0,1,.46,1.79,1.85,1.85,0,0,1-1.35,1.27l-23.49,5.31L123,139.66a1.8,1.8,0,0,1-1.77,1.41Z"/>
                    </g>
                    <g id="_Group_24" data-name="&lt;Group&gt;">
                        <g id="_Group_25" data-name="&lt;Group&gt;">
                            <path class="cls-3"
                                  d="M120.61,63.85a1.82,1.82,0,0,1-1.28-3.1l3.8-3.8a.62.62,0,0,0,0-.86.6.6,0,0,0-.86,0l-3.8,3.8a1.81,1.81,0,1,1-2.56-2.57l3.79-3.8a4.24,4.24,0,0,1,6,6l-3.8,3.79A1.81,1.81,0,0,1,120.61,63.85Z"/>
                        </g>
                        <g id="_Group_26" data-name="&lt;Group&gt;">
                            <path class="cls-3"
                                  d="M51.23,132.22a4.23,4.23,0,0,1-3-7.23L85.47,87.76a1.82,1.82,0,0,1,2.57,0,1.84,1.84,0,0,1,0,2.57L50.8,127.56a.61.61,0,0,0,.86.86L88.89,91.18a1.84,1.84,0,0,1,2.57,0,1.82,1.82,0,0,1,0,2.57L54.23,131A4.25,4.25,0,0,1,51.23,132.22Z"/>
                        </g>
                    </g>
                    <g id="_Group_27" data-name="&lt;Group&gt;">
                        <path class="cls-3"
                              d="M114.72,96.26a1.37,1.37,0,0,1-.28,0A1.82,1.82,0,0,1,113,95l-1.5-4.84-4.84-1.51a1.81,1.81,0,0,1-.51-3.21l4.14-2.93-.07-5.06a1.82,1.82,0,0,1,2.9-1.48l4.06,3,4.8-1.63a1.81,1.81,0,0,1,2.3,2.3l-1.62,4.8,3,4.06a1.82,1.82,0,0,1-1.48,2.9l-5.07-.06-2.92,4.13A1.82,1.82,0,0,1,114.72,96.26Zm-3.48-10,2.24.69a1.83,1.83,0,0,1,1.19,1.2l.7,2.23,1.35-1.91a1.74,1.74,0,0,1,1.5-.76l2.34,0-1.4-1.88a1.84,1.84,0,0,1-.26-1.67l.75-2.22-2.22.75a1.77,1.77,0,0,1-1.66-.26l-1.88-1.4,0,2.34a1.82,1.82,0,0,1-.77,1.51Z"/>
                    </g>
                </g>
            </g>
        </g>
    </g>
</svg>