<svg xmlns="http://www.w3.org/2000/svg" viewBox="0 0 200 200">
    <defs>
        <style>.cls-1{fill:#fff;}.cls-2{fill:#e7f6fd;}.cls-3{fill:#24609b;}</style>
    </defs>
    <title>friends0icn</title>
    <g id="Layer_2" data-name="Layer 2">
        <g id="Layer_1-2" data-name="Layer 1">
            <rect class="cls-1" width="200" height="200"/>
            <g id="_Group_" data-name="&lt;Group&gt;">
                <g id="_Group_2" data-name="&lt;Group&gt;">
                    <circle class="cls-2" cx="99.37" cy="100.55" r="89.88"/>
                </g>
                <g id="_Group_3" data-name="&lt;Group&gt;">
                    <g id="_Group_4" data-name="&lt;Group&gt;">
                        <path class="cls-3"
                              d="M100,79.25a21.67,21.67,0,1,1,21.67-21.67A21.69,21.69,0,0,1,100,79.25Zm0-39.71a18,18,0,1,0,18,18A18.05,18.05,0,0,0,100,39.54Z"/>
                    </g>
                    <g id="_Group_5" data-name="&lt;Group&gt;">
                        <path class="cls-3"
                              d="M133.41,135.89H66.59a1.82,1.82,0,0,1-1.81-1.82V119.19A35.05,35.05,0,0,1,94.3,84.43a1.79,1.79,0,0,1,1.5.44,1.84,1.84,0,0,1,.6,1.46l-1.71,28.55,5.32,4.18,5.31-4.18-1.7-28.55a1.8,1.8,0,0,1,.59-1.46,1.81,1.81,0,0,1,1.51-.44,35.19,35.19,0,0,1,29.5,34.76v14.88A1.82,1.82,0,0,1,133.41,135.89Zm-65-3.63h63.18V119.19a31.56,31.56,0,0,0-24.21-30.73L109,115.62a1.82,1.82,0,0,1-.7,1.53l-7.18,5.64a1.8,1.8,0,0,1-2.24,0l-7.19-5.64a1.81,1.81,0,0,1-.69-1.53l1.62-27.16a31.43,31.43,0,0,0-24.22,30.73Z"/>
                    </g>
                </g>
                <g id="_Group_6" data-name="&lt;Group&gt;">
                    <g id="_Group_7" data-name="&lt;Group&gt;">
                        <path class="cls-3"
                              d="M150,63.92a21.67,21.67,0,1,1,21.67-21.67A21.69,21.69,0,0,1,150,63.92Zm0-39.71a18,18,0,1,0,18,18A18.05,18.05,0,0,0,150,24.21Z"/>
                    </g>
                    <g id="_Group_8" data-name="&lt;Group&gt;">
                        <path class="cls-3"
                              d="M183.41,120.55h-50a1.82,1.82,0,0,1,0-3.63h48.23V103.85a31.56,31.56,0,0,0-24.21-30.72L159,100.28a1.84,1.84,0,0,1-.7,1.54l-7.18,5.64a1.8,1.8,0,0,1-2.24,0l-7.19-5.64a1.83,1.83,0,0,1-.69-1.54l1.62-27.15a31.75,31.75,0,0,0-22,19.08,1.81,1.81,0,1,1-3.37-1.33A35.31,35.31,0,0,1,144.3,69.1a1.79,1.79,0,0,1,1.5.44,1.84,1.84,0,0,1,.6,1.46l-1.71,28.55,5.32,4.17,5.31-4.17L153.62,71a1.8,1.8,0,0,1,.59-1.46,1.81,1.81,0,0,1,1.51-.44,35.17,35.17,0,0,1,29.5,34.75v14.89A1.81,1.81,0,0,1,183.41,120.55Z"/>
                    </g>
                </g>
                <g id="_Group_9" data-name="&lt;Group&gt;">
                    <g id="_Group_10" data-name="&lt;Group&gt;">
                        <path class="cls-3"
                              d="M49.34,52.92A21.67,21.67,0,1,1,71,31.25,21.69,21.69,0,0,1,49.34,52.92Zm0-39.71a18,18,0,1,0,18,18A18.06,18.06,0,0,0,49.34,13.21Z"/>
                    </g>
                    <g id="_Group_11" data-name="&lt;Group&gt;">
                        <path class="cls-3"
                              d="M68.7,109.55H15.93a1.81,1.81,0,0,1-1.82-1.81V92.85A35,35,0,0,1,43.63,58.1a1.8,1.8,0,0,1,2.1,1.9L44,88.55l5.31,4.17,5.32-4.17L53,60a1.84,1.84,0,0,1,.6-1.46,1.81,1.81,0,0,1,1.51-.44A35.17,35.17,0,0,1,84.48,90.6a1.8,1.8,0,0,1-1.69,1.93,1.82,1.82,0,0,1-1.93-1.7,31.57,31.57,0,0,0-24.14-28.7l1.62,27.15a1.8,1.8,0,0,1-.69,1.54l-7.19,5.64a1.8,1.8,0,0,1-2.24,0L41,90.82a1.84,1.84,0,0,1-.7-1.54L42,62.13A31.42,31.42,0,0,0,17.74,92.85v13.07h51a1.82,1.82,0,0,1,0,3.63Z"/>
                    </g>
                </g>
                <g id="_Group_12" data-name="&lt;Group&gt;">
                    <path class="cls-3"
                          d="M82.86,26.79a4.37,4.37,0,1,1,4.37-4.36A4.37,4.37,0,0,1,82.86,26.79Zm0-6.91a2.55,2.55,0,1,0,2.55,2.55A2.55,2.55,0,0,0,82.86,19.88Z"/>
                </g>
                <g id="_Group_13" data-name="&lt;Group&gt;">
                    <g id="_Group_14" data-name="&lt;Group&gt;">
                        <path class="cls-3"
                              d="M115,31.41a.93.93,0,0,1-.64-.26L106.22,23a.91.91,0,0,1,1.28-1.28l8.19,8.18a.92.92,0,0,1,0,1.29A.94.94,0,0,1,115,31.41Z"/>
                    </g>
                    <g id="_Group_15" data-name="&lt;Group&gt;">
                        <path class="cls-3"
                              d="M106.86,31.41a.92.92,0,0,1-.64-.26.91.91,0,0,1,0-1.29l8.18-8.18A.91.91,0,0,1,115.69,23l-8.19,8.19A.93.93,0,0,1,106.86,31.41Z"/>
                    </g>
                </g>
                <g id="_Group_16" data-name="&lt;Group&gt;">
                    <g id="_Group_17" data-name="&lt;Group&gt;">
                        <path class="cls-3"
                              d="M44.19,125.4a.68.68,0,0,1-.48-.19L35.52,117a.68.68,0,1,1,1-1l8.18,8.18a.68.68,0,0,1-.48,1.16Z"/>
                    </g>
                    <g id="_Group_18" data-name="&lt;Group&gt;">
                        <path class="cls-3"
                              d="M36,125.4a.68.68,0,0,1-.48-1.16l8.19-8.18a.68.68,0,1,1,1,1l-8.18,8.19A.7.7,0,0,1,36,125.4Z"/>
                    </g>
                </g>
                <g id="_Group_19" data-name="&lt;Group&gt;">
                    <g id="_Group_20" data-name="&lt;Group&gt;">
                        <path class="cls-3"
                              d="M133.72,71.15a1.21,1.21,0,0,1-.86-.36l-8.18-8.18a1.21,1.21,0,1,1,1.71-1.72l8.19,8.18a1.23,1.23,0,0,1,0,1.72A1.21,1.21,0,0,1,133.72,71.15Z"/>
                    </g>
                    <g id="_Group_21" data-name="&lt;Group&gt;">
                        <path class="cls-3"
                              d="M125.53,71.15a1.17,1.17,0,0,1-.85-.36,1.21,1.21,0,0,1,0-1.72l8.18-8.18a1.21,1.21,0,0,1,1.72,0,1.23,1.23,0,0,1,0,1.72l-8.19,8.18A1.18,1.18,0,0,1,125.53,71.15Z"/>
                    </g>
                </g>
                <g id="_Group_22" data-name="&lt;Group&gt;">
                    <g id="_Group_23" data-name="&lt;Group&gt;">
                        <g id="_Group_24" data-name="&lt;Group&gt;">
                            <path class="cls-3" d="M29,137.12H3.47a.91.91,0,1,1,0-1.81H29a.91.91,0,0,1,0,1.81Z"/>
                        </g>
                        <g id="_Group_25" data-name="&lt;Group&gt;">
                            <path class="cls-3" d="M196.53,137.12h-22a.91.91,0,1,1,0-1.81h22a.91.91,0,1,1,0,1.81Z"/>
                        </g>
                        <g id="_Group_26" data-name="&lt;Group&gt;">
                            <path class="cls-3"
                                  d="M169.37,137.12H38.76a.91.91,0,0,1,0-1.81H169.37a.91.91,0,0,1,0,1.81Z"/>
                        </g>
                    </g>
                    <g id="_Group_27" data-name="&lt;Group&gt;">
                        <g id="_Group_28" data-name="&lt;Group&gt;">
                            <path class="cls-3" d="M49.77,147.56H28.91a.45.45,0,1,1,0-.9H49.77a.45.45,0,1,1,0,.9Z"/>
                        </g>
                        <g id="_Group_29" data-name="&lt;Group&gt;">
                            <path class="cls-3" d="M83.35,147.56H62.47a.45.45,0,1,1,0-.9H83.35a.45.45,0,0,1,0,.9Z"/>
                        </g>
                        <g id="_Group_30" data-name="&lt;Group&gt;">
                            <path class="cls-3" d="M138.27,147.56h-43a.45.45,0,0,1,0-.9h43a.45.45,0,1,1,0,.9Z"/>
                        </g>
                        <g id="_Group_31" data-name="&lt;Group&gt;">
                            <path class="cls-3" d="M175.42,147.56H151a.45.45,0,0,1,0-.9h24.47a.45.45,0,0,1,0,.9Z"/>
                        </g>
                    </g>
                </g>
                <g id="_Group_32" data-name="&lt;Group&gt;">
                    <path class="cls-3"
                          d="M153.91,134.84a6.38,6.38,0,1,1,6.38-6.38A6.38,6.38,0,0,1,153.91,134.84Zm0-10.33a4,4,0,1,0,4,4A4,4,0,0,0,153.91,124.51Z"/>
                </g>
            </g>
        </g>
    </g>
</svg>